<?xml version="1.0" encoding="UTF-8"?>
<svg version="1.1" viewBox="0 0 2048 2048" width="128" height="128" xmlns="http://www.w3.org/2000/svg">
<path transform="translate(1e3 151)" d="m0 0h39l41 3 35 4 54 10 88 18 30 8 41 15 40 14 26 12 24 13 16 10 23 12 28 17 33 22 19 12 17 12 11 9 15 14 8 8 11 9 14 11 15 13 25 25 10 13 13 16 16 16 7 8 10 12 12 17 9 14 14 21 12 19 11 18 9 16 12 21 9 15 17 32 10 26 17 48 9 25 9 36 14 69 8 38 6 35 4 32 2 24v63l-3 37-6 36-9 46-13 63-9 38-7 24-16 44-13 35-8 17-8 16-11 19-8 13-13 24-24 38-16 24-11 18-9 12-9 11-13 14-8 7-11 11-11 17-4 4-512-2-20-1-3-3-1-2v-18l2-55 4-15 6-12 9-14 7-10 9-17 12-32 7-9 10-11 8-11 6-12 5-19v-19l-3-16-5-12-4-6-8-6-15-8-24-8-7-1h-108l-25 1-3-3-15-38-6-11-7-10-3-5v-4h166l93-1 14-3 10-5 7-7 8-7 9-10 7-11 9-20 11-20 8-16 15-36 9-16 12-26 11-26 7-14 10-15 9-14 3-6 4-18v-13l-3-15-4-9-3-3v-2l-4-2-10-8-10-7-8-8-3-2-12-2-27-1h-506l-6-8-14-27-10-19-11-15v-1l641-1 16-1 14-5 16-7 11-6 8-7 9-22 7-20 12-22 9-17 18-41 9-15 16-23 11-27 9-24 11-25 1-10-1-10-6-15-11-21-7-10-7-6-8-2-11-1-23-1-131-1h-773l-79 1-19 2-10 3-9 12-8 14-8 18-3 10v15l5 13 12 25 6 8 5 5 4 3 13 4 18 2 61 1h67l744 1-1 4-9 17-12 20-12 23-5 6-56 1h-467l-194 1-17 2-9 5-6 6h-2l-2 4-11 13-8 14-4 9-1 4v10l4 13 17 32 13 29 14 29 11 25 12 26 17 29 12 22 13 26 9 13 13 12 8 7 11 7 11 2 463 1-2 6-8 16-11 21-10 15-6 5-11 1h-295l-22 1-14 5-9 7-12 11-6 8-8 16-4 16v14l5 19 8 22 9 20 15 29 10 26 6 14 15 22 10 14 8 16 6 15 5 15 7 14 9 11 8 10 8 7 6 4 14 3 11 1 46 1 12 1-3 10-16 33-10 23-3 11-1 8v96l-7 3-47 1-535 2-6-5-11-16-12-14-17-17-18-22-15-24-20-30-8-13-13-21-11-20-16-27-12-23-10-23-14-38-15-44-8-30-12-58-16-85-5-41-1-16v-67l2-26 6-42 8-42 17-88 8-30 9-25 18-51 9-22 16-32 11-19 24-42 12-19 9-13 8-12 7-10 6-10 4-7 13-17 9-10 18-18 10-13 11-14 9-11 7-7 2-3h2l2-4 12-11 11-9 13-10 11-9 15-14 11-11 19-14 21-13 11-8 23-15 24-15 18-10 28-17 36-18 24-10 41-14 23-9 24-7 36-8 101-20 23-4 38-4z" fill="#547362"/>
<path transform="translate(670,1694)" d="m0 0h694l211 1 4 1-2 4-11 9-17 11-21 13-20 13-17 11-25 16-22 12-22 13-28 15-18 8-36 13-29 10-19 7-41 10-48 10-66 13-38 6-40 4-17 1h-50l-29-2-35-5-52-10-38-8-48-9-32-8-35-14-36-12-20-8-36-18-22-13-14-8-20-11-15-10-16-10-12-8-17-11-22-13-14-10-8-9v-3z" fill="#8D3F1E"/>
</svg>
