<?xml version="1.0" encoding="UTF-8"?>
<svg xmlns="http://www.w3.org/2000/svg" xmlns:xlink="http://www.w3.org/1999/xlink" width="240px" height="240px" viewBox="0 0 64 64" version="1.1">
<g id="surface1">
<path style=" stroke:none;fill-rule:nonzero;fill:rgb(32.941177%,45.09804%,38.431373%);fill-opacity:1;" d="M 31.25 4.71875 L 32.46875 4.71875 L 33.75 4.8125 L 34.84375 4.9375 L 36.53125 5.25 L 39.28125 5.8125 L 40.21875 6.0625 L 41.5 6.53125 L 42.75 6.96875 L 43.5625 7.34375 L 44.3125 7.75 L 44.8125 8.0625 L 45.53125 8.4375 L 46.40625 8.96875 L 47.4375 9.65625 L 48.03125 10.03125 L 48.5625 10.40625 L 48.90625 10.6875 L 49.375 11.125 L 49.625 11.375 L 49.96875 11.65625 L 50.40625 12 L 50.875 12.40625 L 51.65625 13.1875 L 51.96875 13.59375 L 52.375 14.09375 L 52.875 14.59375 L 53.09375 14.84375 L 53.40625 15.21875 L 53.78125 15.75 L 54.0625 16.1875 L 54.5 16.84375 L 54.875 17.4375 L 55.21875 18 L 55.5 18.5 L 55.875 19.15625 L 56.15625 19.625 L 56.6875 20.625 L 57 21.4375 L 57.53125 22.9375 L 57.8125 23.71875 L 58.09375 24.84375 L 58.53125 27 L 58.78125 28.1875 L 58.96875 29.28125 L 59.09375 30.28125 L 59.15625 31.03125 L 59.15625 33 L 59.0625 34.15625 L 58.875 35.28125 L 58.59375 36.71875 L 58.1875 38.6875 L 57.90625 39.875 L 57.6875 40.625 L 57.1875 42 L 56.78125 43.09375 L 56.53125 43.625 L 56.28125 44.125 L 55.9375 44.71875 L 55.6875 45.125 L 55.28125 45.875 L 54.53125 47.0625 L 54.03125 47.8125 L 53.6875 48.375 L 53.40625 48.75 L 53.125 49.09375 L 52.71875 49.53125 L 52.46875 49.75 L 52.125 50.09375 L 51.78125 50.625 L 51.65625 50.75 L 35.65625 50.6875 L 35.03125 50.65625 L 34.9375 50.5625 L 34.90625 50.5 L 34.90625 49.9375 L 34.96875 48.21875 L 35.09375 47.75 L 35.28125 47.375 L 35.5625 46.9375 L 35.78125 46.625 L 36.0625 46.09375 L 36.4375 45.09375 L 36.65625 44.8125 L 36.96875 44.46875 L 37.21875 44.125 L 37.40625 43.75 L 37.5625 43.15625 L 37.5625 42.5625 L 37.46875 42.0625 L 37.3125 41.6875 L 37.1875 41.5 L 36.9375 41.3125 L 36.46875 41.0625 L 35.71875 40.8125 L 35.5 40.78125 L 32.125 40.78125 L 31.34375 40.8125 L 31.25 40.71875 L 30.78125 39.53125 L 30.59375 39.1875 L 30.375 38.875 L 30.28125 38.71875 L 30.28125 38.59375 L 35.46875 38.59375 L 38.375 38.5625 L 38.8125 38.46875 L 39.125 38.3125 L 39.34375 38.09375 L 39.59375 37.875 L 39.875 37.5625 L 40.09375 37.21875 L 40.375 36.59375 L 40.71875 35.96875 L 40.96875 35.46875 L 41.4375 34.34375 L 41.71875 33.84375 L 42.09375 33.03125 L 42.4375 32.21875 L 42.65625 31.78125 L 42.96875 31.3125 L 43.25 30.875 L 43.34375 30.6875 L 43.46875 30.125 L 43.46875 29.71875 L 43.375 29.25 L 43.25 28.96875 L 43.15625 28.875 L 43.15625 28.8125 L 43.03125 28.75 L 42.71875 28.5 L 42.40625 28.28125 L 42.15625 28.03125 L 42.0625 27.96875 L 41.6875 27.90625 L 40.84375 27.875 L 25.03125 27.875 L 24.84375 27.625 L 24.40625 26.78125 L 24.09375 26.1875 L 23.75 25.71875 L 23.75 25.6875 L 43.78125 25.65625 L 44.28125 25.625 L 44.71875 25.46875 L 45.21875 25.25 L 45.5625 25.0625 L 45.8125 24.84375 L 46.09375 24.15625 L 46.3125 23.53125 L 46.6875 22.84375 L 46.96875 22.3125 L 47.53125 21.03125 L 47.8125 20.5625 L 48.3125 19.84375 L 48.65625 19 L 48.9375 18.25 L 49.28125 17.46875 L 49.3125 17.15625 L 49.28125 16.84375 L 49.09375 16.375 L 48.75 15.71875 L 48.53125 15.40625 L 48.3125 15.21875 L 48.0625 15.15625 L 47.71875 15.125 L 47 15.09375 L 42.90625 15.0625 L 18.75 15.0625 L 16.28125 15.09375 L 15.6875 15.15625 L 15.375 15.25 L 15.09375 15.625 L 14.84375 16.0625 L 14.59375 16.625 L 14.5 16.9375 L 14.5 17.40625 L 14.65625 17.8125 L 15.03125 18.59375 L 15.21875 18.84375 L 15.375 19 L 15.5 19.09375 L 15.90625 19.21875 L 16.46875 19.28125 L 18.375 19.3125 L 20.46875 19.3125 L 43.71875 19.34375 L 43.6875 19.46875 L 43.40625 20 L 43.03125 20.625 L 42.65625 21.34375 L 42.5 21.53125 L 40.75 21.5625 L 26.15625 21.5625 L 20.09375 21.59375 L 19.5625 21.65625 L 19.28125 21.8125 L 19.09375 22 L 19.03125 22 L 18.96875 22.125 L 18.625 22.53125 L 18.375 22.96875 L 18.25 23.25 L 18.21875 23.375 L 18.21875 23.6875 L 18.34375 24.09375 L 18.875 25.09375 L 19.28125 26 L 19.71875 26.90625 L 20.0625 27.6875 L 20.4375 28.5 L 20.96875 29.40625 L 21.34375 30.09375 L 21.75 30.90625 L 22.03125 31.3125 L 22.4375 31.6875 L 22.6875 31.90625 L 23.03125 32.125 L 23.375 32.1875 L 37.84375 32.21875 L 37.78125 32.40625 L 37.53125 32.90625 L 37.1875 33.5625 L 36.875 34.03125 L 36.6875 34.1875 L 36.34375 34.21875 L 27.125 34.21875 L 26.4375 34.25 L 26 34.40625 L 25.71875 34.625 L 25.34375 34.96875 L 25.15625 35.21875 L 24.90625 35.71875 L 24.78125 36.21875 L 24.78125 36.65625 L 24.9375 37.25 L 25.1875 37.9375 L 25.46875 38.5625 L 25.9375 39.46875 L 26.25 40.28125 L 26.4375 40.71875 L 26.90625 41.40625 L 27.21875 41.84375 L 27.46875 42.34375 L 27.65625 42.8125 L 27.8125 43.28125 L 28.03125 43.71875 L 28.3125 44.0625 L 28.5625 44.375 L 28.8125 44.59375 L 29 44.71875 L 29.4375 44.8125 L 29.78125 44.84375 L 31.21875 44.875 L 31.59375 44.90625 L 31.5 45.21875 L 31 46.25 L 30.6875 46.96875 L 30.59375 47.3125 L 30.5625 47.5625 L 30.5625 50.5625 L 30.34375 50.65625 L 28.875 50.6875 L 12.15625 50.75 L 11.96875 50.59375 L 11.625 50.09375 L 11.25 49.65625 L 10.71875 49.125 L 10.15625 48.4375 L 9.6875 47.6875 L 9.0625 46.75 L 8.8125 46.34375 L 8.40625 45.6875 L 8.0625 45.0625 L 7.5625 44.21875 L 7.1875 43.5 L 6.875 42.78125 L 6.4375 41.59375 L 5.96875 40.21875 L 5.71875 39.28125 L 5.34375 37.46875 L 4.84375 34.8125 L 4.6875 33.53125 L 4.65625 33.03125 L 4.65625 30.9375 L 4.71875 30.125 L 4.90625 28.8125 L 5.15625 27.5 L 5.6875 24.75 L 5.9375 23.8125 L 6.21875 23.03125 L 6.78125 21.4375 L 7.0625 20.75 L 7.5625 19.75 L 7.90625 19.15625 L 8.65625 17.84375 L 9.03125 17.25 L 9.3125 16.84375 L 9.5625 16.46875 L 9.78125 16.15625 L 9.96875 15.84375 L 10.09375 15.625 L 10.5 15.09375 L 10.78125 14.78125 L 11.34375 14.21875 L 11.65625 13.8125 L 12 13.375 L 12.28125 13.03125 L 12.5 12.8125 L 12.5625 12.71875 L 12.625 12.71875 L 12.6875 12.59375 L 13.0625 12.25 L 13.40625 11.96875 L 13.8125 11.65625 L 14.15625 11.375 L 14.625 10.9375 L 14.96875 10.59375 L 15.5625 10.15625 L 16.21875 9.75 L 16.5625 9.5 L 17.28125 9.03125 L 18.03125 8.5625 L 18.59375 8.25 L 19.46875 7.71875 L 20.59375 7.15625 L 21.34375 6.84375 L 22.625 6.40625 L 23.34375 6.125 L 24.09375 5.90625 L 25.21875 5.65625 L 28.375 5.03125 L 29.09375 4.90625 L 30.28125 4.78125 Z M 31.25 4.71875 "/>
<path style=" stroke:none;fill-rule:nonzero;fill:rgb(55.29412%,24.705882%,11.764706%);fill-opacity:1;" d="M 20.9375 52.9375 L 42.625 52.9375 L 49.21875 52.96875 L 49.34375 53 L 49.28125 53.125 L 48.9375 53.40625 L 48.40625 53.75 L 47.75 54.15625 L 47.125 54.5625 L 46.59375 54.90625 L 45.8125 55.40625 L 45.125 55.78125 L 44.4375 56.1875 L 43.5625 56.65625 L 43 56.90625 L 41.875 57.3125 L 40.96875 57.625 L 40.375 57.84375 L 39.09375 58.15625 L 37.59375 58.46875 L 35.53125 58.875 L 34.34375 59.0625 L 33.09375 59.1875 L 32.5625 59.21875 L 31 59.21875 L 30.09375 59.15625 L 29 59 L 27.375 58.6875 L 26.1875 58.4375 L 24.6875 58.15625 L 23.6875 57.90625 L 22.59375 57.46875 L 21.46875 57.09375 L 20.84375 56.84375 L 19.71875 56.28125 L 19.03125 55.875 L 18.59375 55.625 L 17.96875 55.28125 L 17.5 54.96875 L 17 54.65625 L 16.625 54.40625 L 16.09375 54.0625 L 15.40625 53.65625 L 14.96875 53.34375 L 14.71875 53.0625 L 14.71875 52.96875 Z M 20.9375 52.9375 "/>
</g>
</svg>
