<?xml version="1.0" encoding="UTF-8"?>
<svg version="1.1" viewBox="0 0 2048 552" width="430" height="116" xmlns="http://www.w3.org/2000/svg">
<path transform="translate(0)" d="m0 0h2048v552h-2048z"/>
<path transform="translate(247,13)" d="m0 0h43l29 4 31 8 21 8 21 10 20 12 17 12 10 8 20 18 7 8 9 10 13 18 12 20 8 16 8 19 7 22 5 22 4 28 1 18v15l-2 22-6 31-8 27-9 22-12 23-13 19-14 18-7 8-15 1h-125l-26-1 1-23 8-16 10-18 6-11 1-4v-7l-4-9-7-6-3-1-45-1-11-19v-1l17-1 62-1 8-3 5-4 7-12 13-28 10-19 6-14-1-8-5-9-5-4-8-2h-161l-3-5-6-13v-3l198-1 8-3 6-7 12-23 12-25 6-12 3-7 1-9-4-9-2-4-4-2-6-2h-308l-7 4-7 10-1 7 3 9 6 7 9 3 265 1-1 7-5 8-3 5-145 1-78 1-9 6-4 7v12l7 16 11 22 10 19 6 12 4 5 6 3 6 1h77l62 1-7 14-2 5-4 1-99 1-8 4-6 9-1 3v8l11 23 23 47 8 7 7 2 18 1-1 5-6 8-2 8-1 33-29 1h-150l-7-6-13-17-10-14-11-18-9-17-8-20-8-27-6-31-1-8-1-23 2-31 5-30 8-27 8-20 12-25 12-19 11-15 9-10 5-6 8-7 15-15 17-13 19-12 14-8 21-10 33-11 26-5z" fill="#517161"/>
<path transform="translate(1241,89)" d="m0 0h6l1 1v251l-2 1h-38l-14-1-2-2v-3l-8 5-12 4-6 1h-18l-18-4-12-5-14-10-12-12-9-14-6-13-5-19v-26l3-15 7-16 7-11 8-10 9-9 14-9 12-5 14-3h20l13 3 12 6 2 2v-86z"/>
<path transform="translate(1781,165)" d="m0 0h16l13 3 14 6 2-6 53-1 1 113v61l-2 1h-50l-4-2-1-2-4 1-9 4-16 3h-11l-16-3-14-5-14-9-10-9-8-9-9-15-6-17-3-21 1-19 4-15 8-16 8-11 9-10 10-9 15-8 14-4z"/>
<path transform="translate(1345,165)" d="m0 0h24l16 4 18 8 11 8 10 9 11 15 8 15v5l-18 13-19 14-19 13-18 13-9 7 2 1h8l8-3 8-6 9-7 4 1 13 11 14 10 11 9 1 3-7 8-8 8-16 11-17 7-13 3-9 1h-16l-13-2-17-5-15-8-10-8-10-9-8-10-8-16-5-17-1-8v-17l3-16 7-16 8-12 11-13 9-8 13-8 13-5z"/>
<path transform="translate(642,97)" d="m0 0h19l24 1 1 138 2 19 4 13 7 11 7 7 16 8 8 2h25l16-4 11-7 7-7 6-10 4-11 1-7 1-21v-131l1-1h42v136l-1 21-3 16-6 16-6 11-10 13-9 8-11 7-13 6-16 5-18 2h-14l-17-2-18-5-16-8-11-9-10-11-9-14-6-14-5-17-2-15-1-16z"/>
<path transform="translate(966,172)" d="m0 0h20l13 3 14 7 11 9 7 8 8 14 5 12 3 13 1 9 1 89h-40v-86l-1-11-7-14-5-5-7-5-14-3h-13l-10 3-9 6-8 9-4 9-2 12-1 83h-38l-1-92v-66h40v13l11-7 10-6z"/>
<path transform="translate(103,482)" d="m0 0h333l-5 4-14 10-18 11-23 12-25 10-24 7-21 4-15 2-14 1h-19l-30-3-22-4-24-7-25-10-21-11-19-12-15-10-2-1v-2z" fill="#893C1D"/>
<path transform="translate(634,89)" d="m0 0h59l1 154 2 13 5 12 7 9 11 7 16 4h16l14-3 12-6 7-7 5-10 2-8 1-11 1-40v-114h59v151l-2 22-5 19-8 16-8 12-11 12-13 10-14 7-15 5-19 3h-28l-17-3-16-5-14-7-12-9-11-11-9-13-7-15-5-17-3-19-1-23zm8 8v130l2 24 3 15 7 19 8 14 13 15 11 9 16 8 18 5 17 2h14l18-2 21-7 15-8 13-11 8-10 8-14 6-16 3-16 1-21v-136h-42l-1 1v131l-1 21-2 11-7 14-9 10-11 7-16 4h-25l-13-4-11-6-8-8-6-10-4-13-2-19-1-138-24-1z" fill="#52987F"/>
<path transform="translate(1950,97)" d="m0 0h1l-1 236h-38l-1-105v-130z"/>
<path transform="translate(1991,97)" d="m0 0h39v153l-1 83h-37l-1-122z"/>
<path transform="translate(1547,172)" d="m0 0 5 1v39h-19l-10 4-10 9-6 10-2 7-1 16v75l-23 1h-16v-151l1-7h39v12l5-2 15-10 11-3z"/>
<path transform="translate(963,165)" d="m0 0h25l12 3 12 5 11 7 10 9 7 8 7 12 5 13 3 13 1 10v96l-3 1h-50l-1-1-1-94-3-10-5-8-7-6-9-3h-12l-11 4-7 5-6 9-3 7-1 6-1 90-3 1h-51l-1-1v-74l1-99h54l1 4-3 4 1 1 7-6 10-4zm3 7-16 4-10 6-11 7v-13h-40v66l1 92h38l1-83 2-12 5-10 9-10 12-6 5-1h13l14 3 10 7 6 10 3 7 1 11v86h40l-1-89-3-19-5-13-7-13-8-10-9-8-10-6-14-5-6-1z" fill="#69A08A"/>
<path transform="translate(1241,89)" d="m0 0h6l1 1v251l-2 1h-38l-14-1-2-2v-3l-8 5-12 4-6 1h-18l-18-4-12-5-14-10-12-12-9-14-6-13-5-19v-26l3-15 7-16 7-11 8-10 9-9 14-9 12-5 14-3h20l13 3 12 6 2 2v-86zm-40 8v91l-26-13-12-3h-15l-16 4-14 7-10 8-10 10-8 13-5 11-4 15-1 6v20l4 16 6 14 9 13 7 8 12 9 12 6 13 4 7 1h11l16-3 10-5 10-8h3l1 13 11 1h28v-238z" fill="#6BA08A"/>
<path transform="translate(1345,165)" d="m0 0h24l16 4 18 8 11 8 10 9 11 15 8 15v5l-18 13-19 14-19 13-18 13-9 7 2 1h8l8-3 8-6 9-7 4 1 13 11 14 10 11 9 1 3-7 8-8 8-16 11-17 7-13 3-9 1h-16l-13-2-17-5-15-8-10-8-10-9-8-10-8-16-5-17-1-8v-17l3-16 7-16 8-12 11-13 9-8 13-8 13-5zm3 7-17 3-12 5-14 9-12 12-9 13-5 11-4 14-1 7v18l3 14 6 14 8 12 9 10 9 8 12 7 15 5 9 2 9 1h9l16-2 17-5 16-9 14-11v-4l-11-8-17-13-4 1-4 5-12 6-18 2h-8l-11-3-1-2 5-5 13-10 16-11 18-13 20-14 21-14 1-3-8-14-9-11-8-8-10-7-14-7-9-3-13-2z" fill="#6B9F8A"/>
<path transform="translate(1781,165)" d="m0 0h16l13 3 14 6 2-6 53-1 1 113v61l-2 1h-50l-4-2-1-2-4 1-9 4-16 3h-11l-16-3-14-5-14-9-10-9-8-9-9-15-6-17-3-21 1-19 4-15 8-16 8-11 9-10 10-9 15-8 14-4zm-1 7-14 3-12 5-13 9-11 11-9 14-5 11-4 15-1 8v13l2 14 5 15 6 11 10 13 10 9 14 8 15 5 4 1h20l13-3 10-6 10-8 2-1 1 15h38v-158h-38l-1 13-6-3-14-9-11-4-6-1z" fill="#519980"/>
<path transform="translate(1904,89)" d="m0 0h55v252l-1 1h-54l-1-1v-126zm46 8-39 1v130l1 105h38l1-236z" fill="#51967D"/>
<path transform="translate(1984,89)" d="m0 0h53l1 1v252h-55v-252zm7 8v114l1 122h37l1-83v-153z" fill="#4D7E6A"/>
<path transform="translate(573,13)" d="m0 0h9v530h-7l-2-1z" fill="#4E7A67"/>
<path transform="translate(1528,165)" d="m0 0h32v57l-16-2-11 1-9 5-7 8-4 11-1 96-3 1h-52l-1-37v-130l1-7h52l3 4 9-4zm19 7-16 2-8 3-16 11h-2v-12h-39l-1 7v151h16l23-1v-75l1-16 4-11 6-8 8-7 10-4h19v-39z" fill="#539C82"/>
<path transform="translate(1154,219)" d="m0 0h15l10 4 7 6 6 10 3 9v17l-4 10-7 8-9 6-7 2h-12l-10-3-9-7-7-10-3-10v-9l3-12 6-10 8-7z"/>
<path transform="translate(1788,219)" d="m0 0h10l10 3 6 4 7 8 5 10 1 5v11l-3 12-6 8-7 6-8 4-4 1h-12l-11-4-10-9-5-8-2-7v-15l4-11 6-8 7-6 7-3z"/>
<path transform="translate(634,89)" d="m0 0h59v153l-2-1-1-55v-30h-2l-1 10h-1v-67h1v10h2l1-18-41 1v1l9 1 27 2v1h-43l1 130 2 24 1 7 1 21-1 4 9 19 15 16 7 6 13 8 12 5 17 4 4-1h27l21-1 17-5 11-5 7-3 10-9 7-8 7-6 6-9 1 3-8 12-11 12-13 10-14 7-15 5-19 3h-28l-17-3-16-5-14-7-12-9-11-11-9-13-7-15-5-17-3-19-1-23z" fill="#50937B"/>
<path transform="translate(844,97)" d="m0 0h1l1 116 1-72 1-29h1l1 20 1-15h1v123l-2 22-5 19-7 15-3 1-7 9-10 9-7 8-8 6-10 4-17 6-5 1-21 1h-27l-4 1-17-4-12-5-10-6-9-7-11-11-7-9-8-17 1-8v-13l2 4 7 19 8 14 13 15 10 8 16 8 18 5 17 2h14l18-2 21-7 15-8 13-11 9-12 8-15 5-16 2-12 1-21z" fill="#52987F"/>
<path transform="translate(1345,212)" d="m0 0h21l9 3 9 6-1 5-22 15-14 10-21 16-7 5-4-1-3-9v-12l4-13 7-11 7-7 8-5z" fill="#539880"/>
<path transform="translate(1787,211)" d="m0 0 17 1 11 4 9 7 8 12 3 9v21l-3 10-7 11-11 9-11 4h-21l-10-4-8-6-8-10-5-12-1-5v-14l4-13 6-9 8-8 12-6zm1 8-10 3-8 6-6 7-4 9-1 4v15l3 9 7 9 7 6 11 4h12l10-4 8-6 6-7 3-8 1-6v-11l-3-10-7-10-7-6-7-3-5-1z" fill="#51987F"/>
<path transform="translate(1150,212)" d="m0 0h22l11 4 8 6 7 9 5 12 1 7v9l-3 14-4 8-9 10-9 6-8 2h-19l-10-3-10-7-8-11-4-9-1-4v-20l5-12 7-9 9-8zm4 7-10 4-8 7-6 10-3 12v9l3 10 8 11 8 6 10 3h12l11-4 10-9 5-9 1-4v-17l-4-11-6-9-8-6-8-3z" fill="#529980"/>
<path transform="translate(1400,250)" d="m0 0 1 3h2l1 4-11 8-17 12-15 11-1 1 2 1h8l8-3 8-6 9-7 4 1 13 11 14 10 11 9 1 3-7 8-7 6-4 2-9 5-7 2-4 3-14 5-5 1-17 1-13-1-10-2h-14l-10-5 3-1 4 2h6l6-1 9 2 9 1h9l16-2 17-5 16-9 14-11-1-3-10-7-17-13h-3l-5 6-12 6-18 2h-8l-11-3-2-3 5-5 10-8 20-14 18-13 4-3z" fill="#4D806C"/>
<path transform="translate(1958,89)" d="m0 0h1v251h-52l-2-6v-14l1-20 1-67 1-19h3l1 14v105h38l2 1v-53l1-46 1-21 1-53 2-3z" fill="#4E7B67"/>
<path transform="translate(1089,210)" d="m0 0 1 2-3 9-5 19-1 6v20l4 16 6 14 9 13 6 7 12 9 12 6 13 4 7 1h11l16-3 10-5 10-8 4 1v13l39 1v1l-29 1 10 1v1h-25v2l-4-2v-3l-8 5-12 4-6 1h-18l-18-4-12-5-14-10-12-12-9-14-6-13-5-19v-26l1 3h2l1-7 4-11h2l2-9z" fill="#549B82"/>
<path transform="translate(1781,165)" d="m0 0h16l13 3 14 6v2l-8-1-14-5-18-2v2h12l9 2 12 6-3 1-13-5-6-1h-15l-14 3-12 5-13 9-10 10-9 14-5 11-4 15-1 8v13l2 14 5 15 6 11 10 13 9 8 3 2-1 2-6-1-10-10-6-8-8-16 1 7 6 10 11 13 9 8 12 6 6 2v2l4 1v1l-7-1-12-6-12-9-10-10-10-15-6-14-3-11-2-17 1-19 4-15 8-16 8-11 9-10 10-9 15-8 14-4z" fill="#6A9F89"/>
<path transform="translate(581,13)" d="m0 0h1v530h-7l3-2-2-3-1-14v-105l2-57 1-1 1-95 1-33z" fill="#517161"/>
<path transform="translate(1984,89)" d="m0 0h53v180h-1l-1-39-2 7-2 21h-1v-161h-40l-1 2v-3l-2 1-1 5v118l-1 60h-1l-1-190z" fill="#6DA38D"/>
<path transform="translate(1283,211)" d="m0 0 2 1-2 6-6 16-2 12v18l3 14 6 14 8 12 9 10 8 7 12 7 11 4v2l-2 1h-6l-4-1 7 3h14l10 2 14 1 16-1 14-4 8-4 3-2 9-3 7-5h2l-1 3-16 11-17 7-13 3-9 1h-16l-13-2-17-5-15-8-10-8-10-9-8-10-8-16-5-17-1-8v-17l2-12h2l3-3h2l2-9 6-10z" fill="#52987F"/>
<path transform="translate(882,168)" d="m0 0 49 1v1l-45 1 2 2 29 1v1h-28v161h28l7 2 8 1-2 2h-49v-74z" fill="#6A9F8A"/>
<path transform="translate(1904,89)" d="m0 0h54v73l-2-1-1 58-1 16-1 46v32l-1 21h-2v-236h-38l-1-6 4-1-11-1z" fill="#55957D"/>
<path transform="translate(1272,412)" d="m0 0h27l-2 12-3 8-5 4-9 2h-9v7l17 1 8 2 3 3v7l-5 5-4 3-15 2-9-3-3-4v-7l4-8 1-9-3-12v-6l4-6z" fill="#BA5824"/>
<path transform="translate(1959,411)" d="m0 0 12 1 9 2 1 2-3 12-4 6-8 4h-14l1 6 2 1 17 1 6 3 3 4-1 5-5 6-6 3-5 1h-8l-9-4-3-6 1-5 4-7v-12l-3-7 1-7 5-6z" fill="#B75623"/>
<path transform="translate(793,89)" d="m0 0h59v28l-1 34h-1l-1-19-1 9-1 72-1 11h-1v-127l-43 1v131l-2 4-2-100-1-6-1 8-2-2z" fill="#6A9E89"/>
<path transform="translate(1987,96)" d="m0 0 4 1v127l-3 14-1 57-1 24v14l1 4 2 1h31l10-1 5 1 1-14 2 3v15h-55v-223h1l1 101v-118z" fill="#51957C"/>
<path transform="translate(1533,211)" d="m0 0h14v1l-9 1-3 5h-3l1 3-9 5-7 8-4 11-1 93-2 2h-5l1-3h-40l-1-3 16-1h23l-1-8v-67l1-16 4-11 6-8 9-8z" fill="#4E8F78"/>
<path transform="translate(574,13)" d="m0 0h7l-1 4h-3l-1 3v18l2 109v155l-3 72h-1z" fill="#519D83"/>
<path transform="translate(646,262)" d="m0 0 2 4 7 19 8 14 13 15 10 8 16 8 18 5 17 2h14l18-2 27-9 8-4h2l-2 4-5 4-11 5-17 5-21 1h-27l-4 1-17-4-12-5-10-6-9-7-11-11-7-9-8-17 1-8z" fill="#4D7D69"/>
<path transform="translate(578,15)" d="m0 0 3 2v216l-2 69h-1l-1-155-2-109v-18z" fill="#4D7E6A"/>
<path transform="translate(1150,212)" d="m0 0h22l11 4 8 6 7 9 3 6v5l-2-3-3-6h-3l-3-3v3l-4-2-4-5-9-5-4-1h-15l-10 4-7 6-6 10-3 12v9l3 10 1 4-3-2v-2l-8-1-2-5v-20l5-12 7-9 9-8z" fill="#6AA08A"/>
<path transform="translate(634,89)" d="m0 0h59v153l-2-1-1-55v-30h-2l-1 10h-1v-67h1v10h2l1-18-41 1v1l9 1 27 2v1h-43v26l-1 17h-1l-1-43-5-1z" fill="#679984"/>
<path transform="translate(1348,219)" d="m0 0h15l10 2v2l-28 19-12 9-10 7h-2l-1-6 4-13 7-10 7-6z"/>
<path transform="translate(1783,215)" d="m0 0h15l9 1 18 12 4 5 3 2 3 9v21l-3 10-4 7-4 2-9 8-9 1-7-2 4-2 11-6 8-9 3-8 1-6v-11l-3-10-7-10-6-5-7-3-5-1h-10l-11 2 2-2-1-2z" fill="#529980"/>
<path transform="translate(1871,176)" d="m0 0h1l1 96h4l1 13v46l-2 4-4 2h-46l-4-2-5 1-10 3h-7v-2l-3-1 13-3 10-6 10-8h2l1 2v13h38z" fill="#4D7E6A"/>
<path transform="translate(1197,320)" d="m0 0 4 1v13l39 1v1l-29 1 10 1v1h-25v2l-4-2-1-4h-3l-13 5-10 2h-15l16 1v1h-18l-18-4-14-7-5-5 6 2 8 3-11-7-4-4 2-1 13 8 18 6 7 1h11l16-3 10-5z" fill="#4D7D69"/>
<path transform="translate(1909,213)" d="m0 0 2 1 1 14v109h40l1-2 1 3-9 1-1 1h-37l-2-6v-14l1-20 1-67 1-19z" fill="#4D7C68"/>
<path transform="translate(889,242)" d="m0 0h1v92h38v-83h1l1 6 4-13 2-1-1 7-1 27v18l1 20h1v26l-3 1h-51v-1l48-1-13-3-28-1z" fill="#4C836F"/>
<path transform="translate(836,294)" d="m0 0 1 3-8 12-11 12-13 10-14 7-15 5-19 3h-28l-17-3-16-5-14-7-12-9-11-11-5-7 1-2 15 16 7 6 13 8 12 5 17 4 4-1h27l21-1 17-5 11-5 7-3 10-9 7-8 7-6z" fill="#549A81"/>
<path transform="translate(886,179)" d="m0 0h1l1 12h1v145h28l7 2 8 1v1h-48v-41l1-31z" fill="#539D84"/>
<path transform="translate(963,213)" d="m0 0h5v1l17 3 3 3-9-2h-15l-10 4-2 2-6 7-4 5-4 9-1 6-1 64-1 17h-1l-1-37v-18l1-27v-3l-3 10-1 77h-1v-91l4-11 7-9 5-5 12-4z" fill="#539B82"/>
<path transform="translate(1033,197)" d="m0 0 5 5 7 11 4 8 2 7 1 17 2 25v45l-1 16h-1l-1-10-1-2-1 5h-1l-1-77-3-19-5-13-3-6-1-5z" fill="#53977F"/>
<path transform="translate(480,120)" d="m0 0 5 5 14 22 8 15 11 27 7 25 5 26 2 16 1 18v15l-2 3-1-4-1-28-7-35-3-10-1-8-3-8-3-12-9-24-7-12-7-14-9-15z" fill="#4D7B68"/>
<path transform="translate(1715,289)" d="m0 0 3 4 8 15 8 10 8 7h7l14 7 14 4 23 1v2h5l1 3-4 2v1l-8 1h-11l-16-3-4-2 1-1-3-1v-2l-6-1-5-3-7-3-10-9-9-10-8-13-1-2z" fill="#51987F"/>
<path transform="translate(1246,174)" d="m0 0h1l1 40v127h-1l-1-23-1 19-2-2-1-10v-31l1-54 1-26 1-10z" fill="#51937B"/>
<path transform="translate(1904,90)" d="m0 0h51v1l-44 1v4h36v1l-35 1-1 19h-3l-2 84-1 70h-1z" fill="#6EA48E"/>
<path transform="translate(1420,198)" d="m0 0 5 5 7 9h3 2l6 12v5l-18 13-19 14h-3v-3h-2l-1-2-2 1 1-3 23-16 9-6h2l-1-5-8-13-2-6z" fill="#53987F"/>
<path transform="translate(1528,165)" d="m0 0h32v57l-16-2h-12v-2l4-2 1-4h15l-1-3v-33l1-5 2 3-1 32h2v-34l1-5h-30z" fill="#549980"/>
<path transform="translate(635,105)" d="m0 0 1 2h2l1 19v116l-2 6-2-1z" fill="#6EA48E"/>
<path transform="translate(1525,166)" d="m0 0 31 1v37l-1 2h-2v-33l-17 1-11 3-18 12-3-1v-10l1-2h-5v-1l9-1 9-4z" fill="#52937C"/>
<path transform="translate(574,64)" d="m0 0h1l2 122v89l-2 43h-1z" fill="#6FA58F"/>
<path transform="translate(1426,306)" d="m0 0 3 1-2 6-2 4 2 1-2 4-4 1-10 6-7 2-4 3-14 5-5 1-17 1-13-1-10-2h-14l-10-5 3-1 4 2h6l6-1 9 2 9 1h9l16-2 17-5 16-9 14-11z" fill="#4D7D69"/>
<path transform="translate(2037,90)" d="m0 0h1v224l-1 7h-1l-1-37-1-8h-2l-1 9h-1v-27l2-21 2-15h1l1 10z" fill="#518C75"/>
<path transform="translate(1395,274)" d="m0 0 4 1 13 11 14 10 11 9 1 3-7 8-4 4-2-1v-2l1-4 2-6-8-4-14-11-8-6-5-6h-3l2-4z" fill="#51987F"/>
<path transform="translate(1240,254)" d="m0 0h1l2 73 1 8 1-17 1-64h1v87l-1 1h-38l-12-1v-2l15-1-5-1v-1h34z" fill="#679E88"/>
<path transform="translate(1042,398)" d="m0 0h25l3 1v3h-24v18h20l2 1v3h-22v21h25v3l-3 1h-26z" fill="#C05C26"/>
<path transform="translate(1794,411)" d="m0 0h12l7 4 4 5 2 6-1 10-4 8-6 5-7 2-8-1-5-5-3-4-2-7v-7l3-8 6-7zm5 3-6 3-4 5-1 5v8l3 7 4 4h9l6-4 3-5 1-4v-9l-5-7-7-3z" fill="#BA5824"/>
<path transform="translate(1894,411)" d="m0 0h11l8 4 5 6 1 3v10l-4 9-7 6-5 2-9-1-8-7-3-8v-8l4-10zm2 4-6 5-2 7v9l3 6 5 4h9l5-3 4-7 1-11-4-6-6-4z" fill="#B75724"/>
<path transform="translate(1878,286)" d="m0 0h1v55l-1 1h-50l-4-2-1-2-4 1-9 4-4 1h-7l6-3v-2l14-5 4 1 9 1h40l4-2 1-3z" fill="#559C83"/>
<path transform="translate(1389,279)" d="m0 0 5 1 4 5-3 1-5 6-12 6-18 2h-8l-8-2v-2l5-1 5-5 5-1 3 1h8l8-3 8-6z" fill="#4D7C69"/>
<path transform="translate(1662,394)" d="m0 0h3l1 2 1 17h21l3 3 1 12v20l-4 1-1-32h-20l-1 34-4-1z" fill="#BE5A25"/>
<path transform="translate(1170,411)" d="m0 0h10l6 3 3 3 1 3v9l-3 2h-5l2-4 1-1-1-8-5-3h-7l-5 2-3 8 16 2v2l-5 2-9-1-3-1 1 9 4 5 4 2h8l9-2-2 4-7 3h-9l-6-3-4-5-2-6v-10l3-8 4-5z" fill="#BA5824"/>
<path transform="translate(1e3 241)" d="m0 0 4 2v96l44 1 4 2h-50l-1-1z" fill="#659984"/>
<path transform="translate(849,411)" d="m0 0h10l8 5 3 6v5l-5 3h-12l-9-1 1-3 5-1 5 1h10l-2-8-5-3h-7l-4 2-3 7v13l3 5 6 3h8l8-2-2 4-9 3-10-1-6-5-3-7v-14l4-8z" fill="#B95824"/>
<path transform="translate(2037,410)" d="m0 0 2 1-6 18-8 21-4 10-4 4-9 1v-2l9-5 2-6-1-7-13-32 1-2 5 1 8 22 2 10h2l3-10 8-21z" fill="#B35423"/>
<path transform="translate(747,412)" d="m0 0 9 1 4 2 1 2 1 10v10l-1 12-5-1v-30l-9-2-11 1 1 19v14h-4l-1-4-1-14v-19z" fill="#B05222"/>
<path transform="translate(1456,175)" d="m0 0h1l1 50 2 1v6h-1v31l2 5h-3l3 2 1 7v32l-1 12-2 1-3-17z" fill="#4D7C68"/>
<path transform="translate(1355,410)" d="m0 0h2l-2 9-11 29-6 12-6 5-2 1h-6l1-2 6-3 5-6 1-8-12-31-1-4 5 1 4 8 6 19 1 4 10-25 4-8z" fill="#AC5022"/>
<path transform="translate(1962,414)" d="m0 0 9 2 4 4-1 7-5 6-5 2-8-1-5-4v-9l5-5z"/>
<path transform="translate(962,211)" d="m0 0h13l14 3 11 8 6 10 1 5-3-4-1-2h-3l-3-2 5 10-1 3-2-3-5-9-8-7-9-3h-12l-11 4-3-1 9-5 4-1h15l8 2-5-2-16-2-3-1-9 2-7 2 3-3 7-3z" fill="#689C87"/>
<path transform="translate(2032,275)" d="m0 0 3 1 1 8 1 30h1v13h-1l-2 11-3 1-3-3 1-51 1-9z" fill="#4D7E6A"/>
<path transform="translate(1108,412)" d="m0 0h11l9 2 1 2 1 17v14l-1 2h-3l-1-26-1-6-14-1-5 1-1 32h-4l-1-5v-31z" fill="#BB5824"/>
<path transform="translate(1279,415)" d="m0 0 13 1v11l-3 5-4 2h-10l-4-1-1-3v-11l4-3z"/>
<path transform="translate(1074,272)" d="m0 0 2 2 5 16 8 17 11 13 10 9 20 10 18 4-1-1v-1h18l16-4 10-4 2 1-7 6-14 5-6 1h-18l-18-4-12-5-14-10-12-12-9-14-6-13-3-10z" fill="#609A83"/>
<path transform="translate(996,228)" d="m0 0 4 2 4 1 3 5 2 3-1 9v37l-1 52 36 1 7 1v1h-37l-8-1-1-96-2-1z" fill="#519C82"/>
<path transform="translate(1555,412)" d="m0 0h12l6 3 3 4 1 4v7l-3 2-1-1-2-11-2-3-4-1h-8l-5 3-1 5v13l4 6 5 2h7l9-3-2 4-4 3-10 1-7-3-5-5-3-8v-8l3-9 4-4z" fill="#B85724"/>
<path transform="translate(1991,211)" d="m0 0h1v122h37v-83h1v86h-38l-3-4v-14h1z" fill="#527161"/>
<path transform="translate(1723,413)" d="m0 0h28l2 4 1 11v21h-4l-1-24-1-8h-19l-1 33h-3l-1-9z" fill="#BE5A25"/>
<path transform="translate(679,397)" d="m0 0 27 2-1 2h-11v44l11 2v2h-14l-12-1 1-3h9l-1-29 1-15h-8l-3-3z" fill="#8E3F1D"/>
<path transform="translate(885,168)" d="m0 0h51l1 4-3 4-2 7-3-3v-4h-40l-2-2-2-3z" fill="#51947C"/>
<path transform="translate(1273,449)" d="m0 0h15l7 2v7l-4 4-4 1h-13l-5-2-1-1v-9z"/>
<path transform="translate(634,89)" d="m0 0h56v2l-41 1v1l9 1 27 2v1h-43v26l-1 17h-1l-1-43-5-1z" fill="#679B86"/>
<path transform="translate(1955,449)" d="m0 0h14l7 3v6l-4 4-3 1h-12l-7-3-2-4 1-4z"/>
<path transform="translate(1008,244)" d="m0 0h1l1 6v71l-1 15h40v1l-6 1h-37l1-68v-22z" fill="#679884"/>
<path transform="translate(1485,398)" d="m0 0h38v3l-7 1h-9l-1 44-2 4h-2v-50l-8 2h-8l-2-3z" fill="#B05222"/>
<path transform="translate(1272,412)" d="m0 0h27l-2 12-3 8-5 4h-7l3-1v-2l4-2 2-4 1-11h-13l-7 2-1 1v11l1 7-3-1-4-11v-6l4-6z" fill="#B85724"/>
<path transform="translate(795,401)" d="m0 0h3l1 3v8h10l4 4h-14l2 28 2 1h11l-1 3-5 2-9-1-3-5-2-27-3-1 1-3 2 1v-11z" fill="#B45423"/>
<path transform="translate(1954,447)" d="m0 0h21l5 4 1 5-4 6-5 4-8 2h-8l-9-4-3-6 1-5 3-5h5zm1 2-6 3-1 5 5 5 4 1h12l5-3 2-2v-6l-7-3z" fill="#B25323"/>
<path transform="translate(1323,235)" d="m0 0 2 4-4 13v6l5-2v5h-2l-1 5-3-1-3 5-1 2-3-6-1-4v-12l3-11h3z" fill="#50967E"/>
<path transform="translate(1618,411)" d="m0 0h13l1 4h-12l-6 3-4 7v11l4 6 4 3h9l6-2-1 5-9 2-9-2-7-6-2-5v-12l5-10 4-3z" fill="#B85624"/>
<path transform="translate(1419,390)" d="m0 0h3l1 4v64l-2 3h-2z" fill="#BB5824"/>
<path transform="translate(972,392)" d="m0 0 4 1v68l-3 1-1-10z" fill="#B15323"/>
<path transform="translate(1830,319)" d="m0 0h2l1 2v8l-1 6 2 1-3 1-8-1-4-1-12 4h-7v-2l-3-1 13-3 10-6z" fill="#4D7E6A"/>
<path transform="translate(804,322)" d="m0 0h2l-2 4-5 4-11 5-17 5h-13l-27-1-11-2v-1l17 1h14l18-2 27-9z" fill="#4E7A67"/>
<path transform="translate(436,139)" d="m0 0h2l-2 9-10 24-8 16-3 4-4 9-6 7-1-4 10-19 13-27 6-12z" fill="#4D7B68"/>
<path transform="translate(2036,324)" d="m0 0 2 3v15h-55v-16l2-1 2 12 2 1h31l10-1 5 1z" fill="#519B81"/>
<path transform="translate(1871,176)" d="m0 0h1v161l-38-1-2-1v-6h1v5h38z" fill="#517161"/>
<path transform="translate(836,294)" d="m0 0 1 3-8 12-11 12-13 10-14 7-11 4h-6l1-2 10-3v-2l12-5 9-4 10-9 7-8 7-6z" fill="#679D87"/>
<path transform="translate(359,30)" d="m0 0 7 1 18 8 20 11 21 14 13 10 10 9-1 2-10-7-1-3-20-14-9-5-23-13-16-8-9-4z" fill="#4D7B68"/>
<path transform="translate(1420,198)" d="m0 0 5 5 7 9h3 2l6 12v5l-4 3h-3v-2l-6 1-3 1 1-3 5-2-1-5-8-13-2-6z" fill="#539980"/>
<path transform="translate(634,96)" d="m0 0h5l1 1v43h-1l-1-16v-17h-2l-1 117h-1z" fill="#518D76"/>
<path transform="translate(1531,167)" d="m0 0h25v37l-1 2h-2v-35l-29 2 1-4z" fill="#4D7E6A"/>
<path transform="translate(901,396)" d="m0 0h4l1 23v30h-4l-1-27z" fill="#BA5724"/>
<path transform="translate(649,91)" d="m0 0h41v13l-1 5h-2l-1-10-1-2-29-2-12-2v-1z" fill="#519D83"/>
<path transform="translate(1850,396)" d="m0 0h3v53l-3 2-1-2v-52z" fill="#AC5022"/>
<path transform="translate(791,272)" d="m0 0 1 3-9 10-10 7-12 4h-30v-2l22-1 16-4 9-6 10-10z" fill="#6A9F89"/>
<path transform="translate(1787,211)" d="m0 0 17 1 11 4 9 7 6 9-1 2-6-7-16-10-9-1h-25l4-3z" fill="#689C87"/>
<path transform="translate(1221,413)" d="m0 0h19l1 3-7 1h-9l1 31h-4l-1-3z" fill="#B55523"/>
<path transform="translate(1464,176)" d="m0 0h1v95h-2l-1-49v-18l1-21z" fill="#6DA48E"/>
<path transform="translate(654,302)" d="m0 0 6 5 7 8 7 7 14 9 11 5 15 4 13 3 8 1v1h-14l-20-5-16-7-14-10-12-12-5-7z" fill="#5B957F"/>
<path transform="translate(1054,283)" d="m0 0h1l1 58h-7v-1l-6-1v-2h6v-35h1l1 17 1 2 1-6z" fill="#6FA58F"/>
<path transform="translate(1662,394)" d="m0 0h3l1 37v20l-4-1z" fill="#C35D25"/>
<path transform="translate(1197,320)" d="m0 0 4 1v13l39 1v1l-29 1 10 1v1h-25v2l-4-2 1-4 3-2 2 1 1-11-4 2-3-1z" fill="#51937B"/>
<path transform="translate(935,234)" d="m0 0h2l-4 17-2 6-1 77h-1v-91l2-7z" fill="#6DA38D"/>
<path transform="translate(935,250)" d="m0 0h1v65l-1 17h-1l-1-37v-18l1-26z" fill="#6FA58F"/>
<path transform="translate(1415,318)" d="m0 0v3l-10 8-8 4-12 4-6 1h-25v-1l25-3 17-5 16-9z" fill="#527161"/>
<path transform="translate(961,168)" d="m0 0h21l17 3 10 4 1 2-5-1-11-4-6-1h-23l-15 3-8 4-7 6-1-4 4-4 17-7z" fill="#519D83"/>
<path transform="translate(1273,447)" d="m0 0h21l5 4v7l-5 5-4 3-15 2-2-1v-2l14-1v-2l5-2 2-2 1-7-23-2z" fill="#BE5A24"/>
<path transform="translate(1912,333)" d="m0 0h38l2 1v3h-40z" fill="#3D564A"/>
<path transform="translate(1191,333)" d="m0 0 2 1-7 6-14 5-6 1h-18l4-2-5-2v-1h18l16-4z" fill="#50967D"/>
<path transform="translate(1045,401)" d="m0 0h22v1h-21v18h20l2 1v3h-22v21h-1z" fill="#883C1E"/>
<path transform="translate(1196,323)" d="m0 0h3v7l-1 4-4 1h-3-3l-10 4-3-1 6-4 1-3 9-6z" fill="#4D7E6A"/>
<path transform="translate(1345,212)" d="m0 0h21l7 2v2l-27 1-13 4-2-1 5-5z" fill="#699F89"/>
<path transform="translate(133,195)" d="m0 0h1l3 9 12 25 9 17-1 4-5-8-15-29-4-12z" fill="#4E7B68"/>
<path transform="translate(1336,222)" d="m0 0h2l-1 3-7 6-4 6h-4l-6 4 1-6 4-6 6-4z" fill="#6A9F89"/>
<path transform="translate(935,315)" d="m0 0h1v26l-3 1h-51v-1l48-1-13-3v-1l16-1 1-3z" fill="#5D8F7A"/>
<path transform="translate(1456,175)" d="m0 0h1l1 50 2 1v6h-1v31l2 5h-3l-1 2-1-34z" fill="#4F7866"/>
<path transform="translate(1365,282)" d="m0 0 2 1-7 6-9 4-1 1 2 2-11 1-2-3 5-5 5-4 2 1v1l8-2z" fill="#51987F"/>
<path transform="translate(1355,410)" d="m0 0h2l-2 9-11 29-2 3v-6l3-7-2 1 3-10 7-17z" fill="#A84E21"/>
<path transform="translate(1904,334)" d="m0 0h2l1 6 51-1v3h-54z" fill="#5A9E86"/>
<path transform="translate(732,417)" d="m0 0 3 1 1 14 1 4v14h-4l-1-4z" fill="#BF5B25"/>
<path transform="translate(2037,410)" d="m0 0 2 1-6 18-5 12-4 1 1-5 9-24z" fill="#A84D21"/>
<path transform="translate(1194,281)" d="m0 0 1 3-9 9-10 5h-18l1-2 17-3 14-8z" fill="#6AA08A"/>
<path transform="translate(1826,281)" d="m0 0v3l-4 5-10 7-5 2h-22v-2l19-2 9-3 4-2z" fill="#6A9F8A"/>
<path transform="translate(1951,430)" d="m0 0 8 4 10-1v3l-3 2h-14l1 6 2 1 17 1v1l-18 1-4 1-1-3v-9l2-2h2z" fill="#8A3C1D"/>
<path transform="translate(838,91)" d="m0 0h12v6l-3-2h-17l-21-1-3-2z" fill="#519D83"/>
<path transform="translate(251,106)" d="m0 0h11l1 1h34l3-1 6 1 9 1v1h-65z" fill="#4D7E6A"/>
<path transform="translate(2025,441)" d="m0 0h2l-2 9-4 10-4 4-9 1v-2l9-5 3-12h3v-4z" fill="#B35423"/>
<path transform="translate(1153,169)" d="m0 0h16l14 4 9 5v3l-4 1-13-6 1-2-12-3-11-1z" fill="#559B82"/>
<path transform="translate(965,170)" d="m0 0h13v2l-18 2-12 4-11 7v-3l8-7 13-4z" fill="#6A9E89"/>
<path transform="translate(1345,437)" d="m0 0 1 2-3 6-2 10-4 6-5 4-2 1h-6l1-2 6-3 5-6 6-15z" fill="#B95724"/>
<path transform="translate(1268,433)" d="m0 0 3 3v-3l14 1 1 3-6 1h-9v7l17 1v1l-19 1-1-6z" fill="#893C1D"/>
<path transform="translate(1563,412)" d="m0 0 7 1 5 4 2 6v7l-3 2-1-1-2-11-2-3-10-2z" fill="#B05222"/>
<path transform="translate(1973,417)" d="m0 0h7l-1 9-5 8-3 2-3-1 6-10z" fill="#B45423"/>
<path transform="translate(1317,332)" d="m0 0 5 1 2 1h6l6-1 9 2 9 1v1l-9 2-4-1h-14l-10-5z" fill="#4E7B68"/>
<path transform="translate(654,302)" d="m0 0 6 5 7 8 7 7 12 8v2l-5-2-11-8-11-11-5-7z" fill="#5B9982"/>
<path transform="translate(1821,275)" d="m0 0 2 1-2 5-4 5-9 6-9-1 4-2 11-6z" fill="#4D7C68"/>
<path transform="translate(1346,216)" d="m0 0m-5 1h5v3l-6 3-9 1-6 3-3 2 2-4 6-6 3 1z" fill="#549B82"/>
<path transform="translate(1952,335)" d="m0 0 2 3-12 1h-34l1-2 3-1 40 1z" fill="#589F86"/>
<path transform="translate(1357,168)" d="m0 0h13l17 5 6 3-1 2-14-5-22-3z" fill="#519D83"/>
<path transform="translate(1074,272)" d="m0 0 2 2 5 16 8 17 3 4-1 2-7-10-7-15-3-10z" fill="#669C86"/>
<path transform="translate(416,59)" d="m0 0 5 2 17 13 10 9-1 2-10-7-1-3-20-14z" fill="#4E7A67"/>
<path transform="translate(224,105)" d="m0 0 13 2v2h-27l-8-1 4-2h16z" fill="#4D7E6A"/>
<path transform="translate(1163,421)" d="m0 0 1 4 16 2v2l-5 2-9-1-3-1-1 2z" fill="#8C3E1D"/>
<path transform="translate(45,133)" d="m0 0h2l-2 5-14 26-3 4 1-6 11-21z" fill="#4E7967"/>
<path transform="translate(1089,210)" d="m0 0 1 2-3 9-5 19h-3l1-8 4-13z" fill="#4F8671"/>
<path transform="translate(1283,211)" d="m0 0 2 1-2 6-5 13-3 1v-8l6-11z" fill="#50927A"/>
<path transform="translate(1135,279)" d="m0 0h2l5 5 6 4 8 2 13 1-3 2-10 1-14-7-7-6z" fill="#639782"/>
<path transform="translate(252,343)" d="m0 0h10v3l-1 2 1 10h-2z" fill="#4D7C68"/>
<path transform="translate(1267,451)" d="m0 0h1l1 9 5 2 13 1v1l-6 1h-12l-4-4 1-9z" fill="#893C1D"/>
<path transform="translate(1740,328)" d="m0 0 5 2 13 6 3 1v2l4 1v1l-7-1-12-6-6-4z" fill="#659C86"/>
<path transform="translate(1665,396)" d="m0 0h1l1 17h8v1l7 1v1l-15 1-1 14h-1z" fill="#893C1D"/>
<path transform="translate(798,404)" d="m0 0h1v8h10l4 4-15 1z" fill="#893C1D"/>
<path transform="translate(964,217)" d="m0 0h15l1 3h-15l-11 4-3-1 9-5z" fill="#66A089"/>
<path transform="translate(1826,168)" d="m0 0 47 1v1h-43v2h-3l-1 2z" fill="#6DA48E"/>
<path transform="translate(1507,309)" d="m0 0 2 1v16l-3 1-1-1v-11z" fill="#4D7E6A"/>
<path transform="translate(1485,398)" d="m0 0h16l-1 3-6 1h-8l-2-3z" fill="#AC5022"/>
<path transform="translate(300,429)" d="m0 0 2 1-2 4-1 21-2 3v-22z" fill="#4E7A67"/>
<path transform="translate(848,425)" d="m0 0 15 2 2 3h-12l-9-1 1-3z" fill="#893C1D"/>
<path transform="translate(191,218)" d="m0 0h13v3l-10 4-3-5z" fill="#4D7D69"/>
<path transform="translate(937,175)" d="m0 0v3l-2 4 1 4-5 3h-2v-9l2-2 1 3z" fill="#6CA28C"/>
<path transform="translate(1768,341)" d="m0 0 14 2 13 1-1 2h-11l-12-2-3-1z" fill="#659581"/>
<path transform="translate(1271,433)" d="m0 0 14 1 1 3-6 1h-9z" fill="#8C3E1D"/>
<path transform="translate(1191,333)" d="m0 0 2 1-7 6-5 2-4-1 1-3z" fill="#629C85"/>
<path transform="translate(1320,256)" d="m0 0 1 2 5-2v5h-2l-1 5-3-1-4 4 3-9z" fill="#4E7A67"/>
<path transform="translate(673,316)" d="m0 0 9 6 10 7 5 2-3 1-10-5-9-7z" fill="#519D83"/>
<path transform="translate(1819,336)" d="m0 0 2 1-8 5-7 2h-7l4-2 2-2 12-3z" fill="#669A85"/>
<path transform="translate(679,397)" d="m0 0 27 2v1h-27z" fill="#BB5C27"/>
<path transform="translate(710,340)" d="m0 0 9 1 8 2 8 1v1h-14l-11-3z" fill="#649C86"/>
<path transform="translate(1752,247)" d="m0 0 2 1-1 19h-2v-18z" fill="#6BA28C"/>
<path transform="translate(1752,267)" d="m0 0h2l4 10 7 10 2 3-4-2-8-11-3-7z" fill="#649883"/>
<path transform="translate(1954,447)" d="m0 0h13v1l-12 2-6 3h-3l2-5h5z" fill="#C25C25"/>
<path transform="translate(1180,332)" d="m0 0h2l-2 4-5 2h-7l1-3z" fill="#527161"/>
<path transform="translate(1131,233)" d="m0 0 2 3-4 10-4 3 2-10z" fill="#52967E"/>
<path transform="translate(2032,426)" d="m0 0 1 3-5 12-4 1 1-5 1-3 4-1 1-5z" fill="#A14920"/>
<path transform="translate(1147,296)" d="m0 0h10l1 1 13 1v1h-19l-5-1z" fill="#5D9780"/>
<path transform="translate(1560,425)" d="m0 0 8 1-1 3-9 1-3-1v-2z" fill="#9D4720"/>
<path transform="translate(1973,417)" d="m0 0h7l-1 9-4-1z" fill="#893C1D"/>
<path transform="translate(1510,398)" d="m0 0h13v3l-7 1-4-2z" fill="#AB4F22"/>
<path transform="translate(1374,172)" d="m0 0 7 1 8 4v2l-9-3-9-2z" fill="#669883"/>
<path transform="translate(1092,312)" d="m0 0 14 14 4 3-1 2-12-11-5-5z" fill="#619882"/>
<path transform="translate(376,271)" d="m0 0h2l-2 6-5 11h-2l-1 2 1-5z" fill="#4F7865"/>
<path transform="translate(1831,179)" d="m0 0h1v10l-5-1-9-7h3l9 5z" fill="#699E88"/>
<path transform="translate(1197,320)" d="m0 0 4 1v13h-1l-1-11-4 2-3-1z" fill="#508F78"/>
<path transform="translate(1049,421)" d="m0 0h19v3l-19-2z" fill="#C65E26"/>
<path transform="translate(2033,420)" d="m0 0 1 2-4 11-3 1 1-6 2-5h2z" fill="#BC5924"/>
<path transform="translate(945,218)" d="m0 0h2l-2 4-9 9-2-1z" fill="#5B957F"/>
<path transform="translate(1154,291)" d="m0 0h15l-3 2-10 1-2-1z" fill="#69A38C"/>
<path transform="translate(1715,220)" d="m0 0 1 3-1 8-2 4h-2l1-7z" fill="#569880"/>
<path transform="translate(1819,334)" d="m0 0 4 1-8 4-10 1 2-2z" fill="#519D83"/>
<path transform="translate(195,318)" d="m0 0h1l2 7 3 7-1 4-5-10z" fill="#4E7A67"/>
<path transform="translate(680,318)" d="m0 0 11 7-1 2-5-2-6-4z" fill="#517362"/>
<path transform="translate(1532,213)" d="m0 0h6l-3 5-4 1-2-2 1-3z" fill="#4D7E6A"/>
<path transform="translate(45,133)" d="m0 0h2l-2 5-5 9-3 1 2-5z" fill="#4F7866"/>
<path transform="translate(965,170)" d="m0 0h13v2l-15 1v-2z" fill="#679F88"/>
<path transform="translate(76,95)" d="m0 0v3h-2l-2 4-8 8v-3l10-11z" fill="#4E7A67"/>
<path transform="translate(574,531)" d="m0 0h2l1 7 2 4h-5z" fill="#4D806B"/>
<path transform="translate(1830,172)" d="m0 0 4 1 20 1v1l-23 1z" fill="#6EA48E"/>
<path transform="translate(731,413)" d="m0 0h10l-1 3h-9z" fill="#B65523"/>
<path transform="translate(518,358)" d="m0 0h1l-1 8-2 6h-2l1-5 2-7z" fill="#4E7A67"/>
<path transform="translate(964,217)" d="m0 0m-4 1 5 1-4 2-7 3-3-1z" fill="#669984"/>
<path transform="translate(1089,210)" d="m0 0 1 2-4 12-3-1 2-6z" fill="#519B81"/>
<path transform="translate(1435,225)" d="m0 0 3 1 1 6h-3v-2l-4-2z" fill="#6DA38D"/>
<path transform="translate(800,413)" d="m0 0h11l2 3-13-1z" fill="#C65F26"/>
<path transform="translate(1297,412)" d="m0 0h2l-2 12h-1l-1-10z" fill="#A54C21"/>
<path transform="translate(2006,411)" d="m0 0 5 1 2 9-1-2h-2l-2-4v-3z" fill="#893C1D"/>
<path transform="translate(223,381)" d="m0 0h2l4 8-1 4-5-9z" fill="#4E7966"/>
<path transform="translate(1332,218)" d="m0 0m-2 1 2 1-4 6-6 3 2-4z" fill="#61947F"/>
</svg>
